PathFileType	4	(X/Y/Z)	OpenSim_Sub03_EMGStiffKnee_Gyro.trc
DataRate	CameraRate	NumFrames	NumMarkers	Units	OrigDataRate	OrigDataStartFrame	OrigNumFrames
100	100	33	8	m	100	2849	7597
Frame#	Time	torso_imu_offset_imu	pelvis_imu_offset_imu	tibia_r_imu_offset_imu	femur_r_imu_offset_imu	tibia_l_imu_offset_imu	femur_l_imu_offset_imu	toes_r_imu_offset_imu	toes_l_imu_offset_imu
				X1	Y1	Z1	X2	Y2	Z2	X3	Y3	Z3	X4	Y4	Z4	X5	Y5	Z5	X6	Y6	Z6	X7	Y7	Z7	X8		Y8	Z8	

2849	28.48000000	0.46245363	0.06196845	-0.39880794	0.11206578	-0.19450992	-0.02868164	-0.04020182	-0.24791414	-1.09129147	0.06938722	0.08521798	-0.61783907	-0.14361785	-0.16586809	-2.65667064	-0.12177408	-0.25815706	-0.12626672	0.12686559	-0.32875023	-0.36642567	0.52541579	1.90549979	-1.70920835
2850	28.49000000	0.45003891	0.08573311	-0.42666291	0.05608916	-0.20989166	-0.03460028	-0.02388448	-0.23708244	-1.14185256	0.04692189	0.09802663	-0.58529915	-0.29391115	-0.11706252	-2.43717614	-0.16818896	-0.25906982	-0.09884770	0.12566724	-0.37839029	-0.39540140	0.52636294	1.71474080	-1.57703663
2851	28.50000000	0.44041768	0.10705375	-0.44678634	0.01253810	-0.22810490	-0.01891984	-0.08473769	-0.23945863	-1.16992317	0.03902741	0.08925640	-0.54832306	-0.38957929	-0.04491040	-2.17092307	-0.17446206	-0.26106269	-0.07934441	0.13012570	-0.44247154	-0.41963223	0.35719955	1.60934608	-1.38809818
2852	28.51000000	0.44027800	0.12639219	-0.47320178	-0.05714000	-0.27502482	-0.01897935	-0.15100048	-0.21925506	-1.21778756	0.01419265	0.05934677	-0.51429586	-0.42254009	-0.00951542	-1.80886417	-0.19787947	-0.25874102	-0.05962049	0.13956520	-0.51148850	-0.46046819	0.17165295	1.49536945	-1.14653623
2853	28.52000000	0.42877715	0.14510029	-0.48535653	-0.07054538	-0.31992075	0.04040497	-0.18181264	-0.22228297	-1.26995005	-0.02271610	-0.00437930	-0.50319907	-0.25893938	-0.00303073	-1.36085798	-0.24786572	-0.29203371	-0.09929629	0.11216213	-0.58933777	-0.49842114	0.12068042	1.28658576	-0.85586579
2854	28.53000000	0.39485214	0.16623141	-0.48586132	-0.06668101	-0.35841744	0.07374203	-0.18647710	-0.22010540	-1.30666730	-0.01686947	-0.06642379	-0.50893654	-0.01026861	-0.01005660	-0.88414003	-0.28463669	-0.24003534	-0.21498102	0.10857940	-0.65545066	-0.53069465	0.15825524	0.96224582	-0.51272546
2855	28.54000000	0.35585294	0.18826805	-0.49064833	-0.09076343	-0.40228862	0.10002272	-0.25753111	-0.21749280	-1.32802895	-0.00515728	-0.02028858	-0.47081566	0.14804756	0.00399546	-0.42190010	-0.27263949	-0.17399172	-0.37623862	0.14812653	-0.75780805	-0.57781134	0.22886917	0.54570975	-0.16568192
2856	28.55000000	0.31944048	0.20837102	-0.49725560	-0.12068194	-0.42906282	0.14951215	-0.37455157	-0.19856378	-1.33029466	0.00265545	0.02938002	-0.43868052	0.21708366	0.01591393	0.00062435	-0.16518194	-0.16082208	-0.54045079	0.16519701	-0.92646692	-0.62369708	0.21306582	0.06509834	0.14851581
2857	28.56000000	0.26839935	0.23458715	-0.50300547	-0.17664457	-0.45699623	0.21124133	-0.51639436	-0.18411856	-1.34539283	0.02073145	0.06316569	-0.52284346	0.24275469	0.01428561	0.35069780	0.01638344	-0.16500854	-0.63420112	0.00238643	-1.06654674	-0.63559262	0.21848659	-0.10179238	0.34759742
2858	28.57000000	0.21779504	0.28321690	-0.50628080	-0.23553179	-0.48095875	0.29023105	-0.65998977	-0.17649067	-1.40328911	-0.00185216	0.07681829	-0.59456416	0.28511794	0.01227152	0.61644971	0.25111560	-0.18296276	-0.59988873	-0.04177217	-1.19929508	-0.67780362	-0.27276144	-0.83716025	0.79142127
2859	28.58000000	0.17106511	0.33847649	-0.51256624	-0.27278468	-0.50433183	0.37728761	-0.74420446	-0.17574049	-1.43271708	-0.05330566	0.07440883	-0.55983725	0.16374440	-0.03975632	0.87116669	0.37002415	-0.25407438	-0.47152101	-0.11175005	-1.33097857	-0.69664799	-1.23632609	-2.25535931	1.29102720
2860	28.59000000	0.11987549	0.38960008	-0.52143836	-0.29345466	-0.50686781	0.45639393	-0.76463988	-0.17999374	-1.48379129	-0.20861856	0.13749580	-0.53918898	0.10422128	-0.13725048	1.07699116	0.41127913	-0.27132053	-0.24797853	-0.14056809	-1.50158452	-0.70890709	-1.00701842	-3.24678977	1.95204481
2861	28.60000000	0.07353761	0.43037755	-0.54416598	-0.30643390	-0.45364413	0.47948445	-0.74065678	-0.15151989	-1.57904508	-0.42553746	0.24770275	-0.52488946	-0.19112430	-0.32968867	1.45460011	0.51520957	-0.29536822	0.06934914	-0.19591040	-1.67264671	-0.70326636	1.14328439	-4.21991182	2.04818373
2862	28.61000000	0.04882010	0.43487276	-0.57411574	-0.29558416	-0.32694251	0.45301331	-0.68655885	-0.15503301	-1.69482041	-0.47863802	0.34742461	-0.41728439	0.06789111	-0.71017794	1.74721603	0.74444995	-0.25613595	0.40502860	-0.26490047	-1.89719110	-0.66533315	0.80009518	-3.90636705	1.61247612
2863	28.62000000	0.06978032	0.39574763	-0.61835961	-0.28141702	-0.23081179	0.34107984	-0.59253986	-0.15648498	-1.82965964	-0.33093698	0.43356892	-0.19390669	1.36594981	-1.03782636	1.24032446	1.42791702	-0.03780898	0.62273328	-0.26771026	-2.20460583	-0.62627390	-1.34252747	-3.57948121	1.58406520
2864	28.63000000	0.11216425	0.35216691	-0.63441411	-0.16105732	-0.19797358	0.14143016	-0.48656010	-0.16411086	-1.94364063	-0.12614798	0.52320454	0.02324322	0.25642608	-0.33759123	0.50126264	2.05163811	0.14082545	0.48389172	-0.26228989	-2.57254209	-0.63936931	-2.18663837	-2.82547222	1.78440839
2865	28.64000000	0.16338308	0.34280073	-0.58395511	0.08301377	-0.18259471	-0.14528520	-0.42256699	-0.24788649	-2.02570151	0.07743867	0.56202169	0.12115325	-3.07572481	0.47979026	0.74301804	1.73127373	0.07559452	0.14334873	-0.26579342	-2.95348321	-0.72754513	-2.04816246	-1.36424509	1.55625337
2866	28.65000000	0.23948233	0.32539515	-0.49599710	0.27302137	-0.18443938	-0.42464577	-0.39653629	-0.35243125	-2.10777383	0.32292226	0.58403472	0.31805330	-3.77584779	0.05811603	1.46580443	0.83602540	-0.35049272	-0.06431474	-0.25492122	-3.30035943	-0.93373521	-1.74971910	-0.37902475	1.10829175
2867	28.66000000	0.31477488	0.26812799	-0.42312924	0.36152858	-0.21561384	-0.48945925	-0.38657791	-0.39888764	-2.16575132	0.51632602	0.65654095	0.69868733	-1.21524638	-0.41565015	1.84804417	-0.02035326	-0.87859322	-0.11028057	-0.04080385	-3.60106537	-1.29840933	-1.03454983	-0.18353904	0.63756574
2868	28.67000000	0.35014735	0.22167733	-0.38489949	0.32603329	-0.29155186	-0.37199873	-0.24508422	-0.47519333	-2.17802710	0.41142978	0.77823832	0.95604443	1.11821780	-0.46044708	2.19280711	-0.95195441	-0.76770179	0.04069150	0.24849636	-3.78599530	-1.72467846	-0.46471326	-0.18528192	0.33553875
2869	28.68000000	0.33652726	0.19147818	-0.36842987	0.19471870	-0.29877922	-0.20766226	-0.16379753	-0.63584264	-2.11310619	0.06484425	0.80235999	1.13044660	1.36396360	-0.08158476	2.15789806	-1.32778760	-0.22880170	0.35343138	0.66439535	-4.04654655	-2.22137225	-0.28599281	-0.23226676	0.19873658
2870	28.69000000	0.25251407	0.16414584	-0.35392811	-0.01666828	-0.21218685	-0.05529834	-0.12012075	-0.80517872	-2.03998751	-0.32084001	0.94775107	1.33847211	0.19228001	0.11490591	1.58402046	-0.64017603	-0.00353882	0.58146267	0.84603555	-4.30962691	-2.57270045	-0.21084419	-0.29562002	0.13517307
2871	28.70000000	0.09520609	0.15584997	-0.32613944	-0.23021256	-0.12174408	0.05820326	-0.15712633	-1.00304277	-2.02177038	-0.77582537	1.19856502	1.59159394	-0.46516104	0.15974087	0.97903784	0.29960405	-0.02602003	0.68856863	0.83967660	-4.29296447	-2.79249503	-0.12993233	-0.27134214	0.09380177
2872	28.71000000	-0.10362215	0.15029714	-0.28608916	-0.35015769	-0.05800636	0.12577623	-0.19798589	-1.12945552	-2.02731136	-1.03758279	1.21255311	1.72927253	-0.47532211	-0.17910945	0.79694017	0.87356799	0.00424857	0.91495827	0.68905977	-4.10946450	-2.90143231	-0.13546509	-0.24321202	0.09248470
2873	28.72000000	-0.25784738	0.13024593	-0.23970550	-0.41018228	-0.00631373	0.15719439	-0.11136533	-1.10297379	-1.96341562	-1.06865591	1.16815732	1.77006502	-0.49252114	-0.36355966	0.89109674	1.23406835	0.05807361	1.19308773	0.78406277	-3.84431520	-3.06187831	-0.16407690	-0.19728719	0.10200203
2874	28.73000000	-0.34833920	0.08006355	-0.16075513	-0.42028156	0.08517612	0.18046796	0.08000763	-1.08787325	-1.79462656	-0.89389444	1.07049568	1.77295389	0.15233015	-0.02495303	0.86283446	1.44597076	0.02717987	1.27256256	0.79548141	-3.88235793	-3.23046549	-0.13247427	-0.12980409	0.09654383
2875	28.74000000	-0.40981706	0.03290295	-0.08610763	-0.39575329	0.18673371	0.23854467	-0.03422179	-1.12177280	-1.58611810	-0.66938969	0.88929668	1.70766846	0.44866450	0.01425115	0.70581008	1.20882841	-0.03220149	1.22424589	0.51114255	-3.60590286	-3.00802168	-0.07020993	-0.09282983	0.09284092
2876	28.75000000	-0.45439247	-0.02167008	-0.03184556	-0.32639542	0.26753380	0.30320807	-0.95527392	-0.98984932	-1.40449055	-0.54279374	0.76876961	1.60195007	0.63487552	-0.11894233	0.61504091	0.76166819	-0.04255691	1.14143504	-1.04537020	-1.18025195	-2.00660922	-0.11146908	-0.09164141	0.12052401
2877	28.76000000	-0.50361261	-0.07288249	0.00847079	-0.23196500	0.29414169	0.36578035	-2.11456163	-0.70618585	-1.20714903	-0.30608863	0.69910382	1.48990270	0.51342349	-0.08668572	0.59572841	0.49391719	-0.05169616	1.07660732	-2.53882503	0.42858661	-1.32484786	-0.18314852	-0.06944120	0.14036109
2878	28.77000000	-0.51947547	-0.13277034	0.05094887	-0.14039582	0.26601609	0.41560678	-2.75948858	-0.67158446	-0.78357540	-0.00337128	0.56483336	1.36741538	0.05364813	-0.04426196	0.54302667	0.34813363	-0.10331623	1.00364769	-2.35113142	0.37747516	-1.57375675	-0.17480730	-0.05432401	0.13068865
2879	28.78000000	-0.53827985	-0.20106364	0.08042097	-0.08330514	0.22394086	0.44981506	-3.53232884	-0.66565699	-0.14761219	0.15352750	0.54335846	1.27913696	-0.14708314	-0.00312126	0.45515095	0.21366504	-0.11799804	0.96084884	-1.77052602	0.64732439	-1.77202060	-0.14452270	-0.03341157	0.11303571
2880	28.79000000	-0.54084334	-0.24667967	0.08982626	-0.07022688	0.20746918	0.45860598	-3.13939769	-0.52545414	0.39228208	0.15811758	0.64166210	1.23468087	-0.05730061	-0.02390077	0.48100443	0.13399735	-0.09963658	0.99638253	-1.57582047	0.97506649	-1.65767609	-0.15003372	-0.04341817	0.11481609
2881	28.80000000	-0.51238994	-0.29216359	0.10105361	-0.07153559	0.20722974	0.45245764	-2.12679201	-0.52090401	0.63474329	0.07663474	0.61324649	1.20031653	0.19893357	0.00948016	0.52871419	0.24793794	-0.09894288	1.02854480	-1.79403086	1.22790122	-1.27916526	-0.15414629	-0.02015682	0.11910565
